<svg id="Layer_1" data-name="Layer 1" xmlns="http://www.w3.org/2000/svg" viewBox="0 0 143.64 143.64"><defs><style>.cls-1{fill:#fff;}</style></defs><path class="cls-1" d="M71.82,0a71.82,71.82,0,1,0,71.82,71.82A71.82,71.82,0,0,0,71.82,0Zm0,124.07a52.25,52.25,0,1,1,52.25-52.25A52.25,52.25,0,0,1,71.82,124.07Z"/><path class="cls-1" d="M36.06,93.61c-.18-.34-.39-.67-.54-1s-.38-.68-.85-.38a.7.7,0,0,1-.2.08,2,2,0,0,1-2.26-1.42c-.15-.62.77-.63,1.23-.84a3.79,3.79,0,0,1,1.5-.39,28.13,28.13,0,0,0,5.71-.78,128.69,128.69,0,0,0,13.26-3.65c4.87-1.58,9.73-3.19,14.55-4.9,5.61-2,11.19-4.09,16.78-6.15.89-.33,1.76-.7,2.63-1.06a1,1,0,0,0,.24-.18,1.27,1.27,0,0,0-.32-.13c-.84,0-1.68,0-2.52,0a7,7,0,0,0-3.23.69Q76.54,75.85,71,78c-3,1.16-6.08,2.16-9.11,3.25a1.93,1.93,0,0,1-2.35-.41,3.39,3.39,0,0,0-1.69-1.17c-.61-.08-1.31.41-2,.68L38.14,87.61c-.29.12-.63.44-.93,0a1.18,1.18,0,0,1,.15-1.36,3,3,0,0,1,.62-.38c.5-.26,1-.5,1.5-.77.27-.14.53-.32.79-.48-.33,0-.66-.08-1-.1s-.91,0-1.36-.12a13.49,13.49,0,0,1-5.63-2.69c-.32-.23-.61-.48-.94-.68a2,2,0,0,0-1.92-.14c-.33.14-.4.37-.18.67a2.7,2.7,0,0,0,.28.31l4.72,4.94c.27.28.56.54.8.84a8,8,0,0,1,.47.87,5,5,0,0,1-1.27.38c-.24,0-.52-.32-.74-.53-2-1.9-4-3.82-6-5.73a6.62,6.62,0,0,1-.56-.47c-.59-.76-1.21-.69-2-.23a18.3,18.3,0,0,1-2.3,1c-.12,0-.44-.07-.47-.18a2.09,2.09,0,0,1,1.11-2.63l3.65-1.85a2.41,2.41,0,0,0,.69-.47c.11-.12.08-.37.11-.55a1.42,1.42,0,0,0-.47,0c-.95.46-1.88,1-2.83,1.41a3.77,3.77,0,0,1-.68.18,1.91,1.91,0,0,1-.11-.8,1.33,1.33,0,0,1,.53-.72c1.13-.64,2.26-1.28,3.44-1.82a3.78,3.78,0,0,1,4.07.38l3.73,2.74a27.37,27.37,0,0,0,4.78,3,3.71,3.71,0,0,0,3.34.08c1.11-.53,2.26-1,3.36-1.5Q52.47,77.63,58,74.83A8.28,8.28,0,0,0,59.35,74a2.11,2.11,0,0,0,.39-.67,2.68,2.68,0,0,0-.76.1c-2.33,1.07-4.64,2.17-7,3.25-.25.12-.5.24-.77.34s-.5.31-.74,0a.75.75,0,0,1,.14-1,4.08,4.08,0,0,1,.72-.44c.4-.22.82-.4,1.21-.63.13-.08.3-.34.27-.38a4,4,0,0,0-.81-.93.94.94,0,0,0-.75,0c-.72.29-1.42.61-2.11,1l-5.76,2.85a2.35,2.35,0,0,1-.49.11,2,2,0,0,1,0-.49c.07-.41.24-.81.27-1.22a3,3,0,0,1,1.93-2.63c2.06-1,4.06-2.08,6.08-3.13a2.32,2.32,0,0,0,.63-.37.81.81,0,0,0,0-1.06c-.23-.39-.5-.07-.72,0-.61.25-1.23.51-1.82.82A1,1,0,0,1,48,69.27c-1-1.1-2-2.21-3.13-3.26-.56-.56-.38-.73,0-1.11a6.76,6.76,0,0,1,.64-.54,7.85,7.85,0,0,1,5.39-1.71c1.43.1,2.85.26,4.28.43,2,.22,4,.44,5.94.7,2.28.31,4.57.66,6.85,1,1.8.25,3.61.47,5.41.72,2.18.31,4.36.65,6.54,1,2.42.36,4.84.69,7.26,1,1.14.17,1.37.57.91,1.66-.21.48,0,.62.36.75.89.32,1.78.63,2.66,1a1.52,1.52,0,0,0,1.3-.05c2-.92,4.07-1.73,6-2.72,2.31-1.17,4.55-2.49,6.81-3.76.67-.38.7-.4,1.29.07a3,3,0,0,0,.48.4,1.68,1.68,0,0,0,.69.18c.41,0,.54-.26.33-.63s-.57-1-.83-1.46a69.74,69.74,0,0,1-3.61-8c-.25-.68-.64-1.08-1.4-1a26.84,26.84,0,0,0-3.12.37A61,61,0,0,0,87.4,58.55c-3.37,1.56-6.66,3.3-10,5-.22.11-.53.21-.6.39-.22.56-.61.46-1,.39s-.56-.09-.84-.12l-6-.46a3,3,0,0,1-.52-.1.5.5,0,0,1-.4-.63,3.91,3.91,0,0,1,1.47-2.91,40.12,40.12,0,0,1,9.33-5.22,5.2,5.2,0,0,1,4.28,0c.47.23,1,.37,1.45.6a5.4,5.4,0,0,0,4.08.27q3.24-.91,6.49-1.74c2.45-.62,4.88-1.27,7.35-1.79,2.16-.44,3.73.11,4.71,2.46.88,2.1,1.87,4.15,2.76,6.24a23.43,23.43,0,0,1,.9,2.68,3.41,3.41,0,0,1-1.45,3.86,17.05,17.05,0,0,1-1.63,1.15,63.58,63.58,0,0,1-8.13,4.17,139.37,139.37,0,0,1-13.49,5.32q-7.39,2.41-14.81,4.76C66.94,84.29,62.48,85.65,58,87l-20,6.22a5.65,5.65,0,0,0-.75.35ZM86.6,69c.22-.32.12-.5-.3-.56l-5.1-.67L76.11,67l-5.61-.75-5.2-.7-5.4-.76-7.06-1a4.46,4.46,0,0,0-.63,0c-.07,0-.14.11-.21.17s.13.15.21.17l4.11.85,14.29,2.86L83.47,70.4a4.39,4.39,0,0,0,.67.06A3,3,0,0,0,86.6,69ZM74.89,60.64c1.86-.89,3.72-1.8,5.58-2.71.09,0,.17-.11.26-.16-.11-.06-.21-.13-.32-.18A5.89,5.89,0,0,0,75,58c-1.17.62-2.25,1.4-3.37,2.12-.11.07-.16.21-.24.32.12.07.23.19.36.21.72.1,1.45.17,2.33.28C74.25,60.89,74.58,60.79,74.89,60.64Zm5.29-5.11a4.42,4.42,0,0,0-.61.32,3.1,3.1,0,0,0,.58.39c.81.34,1.63.64,2.43,1,.49.22.54.57.11.86s-1,.54-1.47.81c-.3.16-.69.28-.59.74s.42.34,1,.06L85.09,58a2.79,2.79,0,0,0,.45-.26c.25-.21.23-.45-.05-.59a13.21,13.21,0,0,0-1.34-.58l-2.75-1c-.17-.06-.34-.09-.53-.14A5.78,5.78,0,0,0,80.18,55.53Z"/><path class="cls-1" d="M121.59,79.09a5.76,5.76,0,0,1-.35.51c-.38.49-.78.5-1.19,0a4.23,4.23,0,0,1-.32-.42c-1.15-1.67-2.28-3.36-3.46-5a19.58,19.58,0,0,1-3.09-5.81c-.62-2.15-1.31-4.28-2-6.42a2,2,0,0,1-.15-.61c0-.18.08-.47.2-.53.73-.31,1.08-1,1.58-1.51s.52-.45.85,0c.06.09.1.19.15.28,1.2,2.1,2.42,4.18,3.58,6.3A25.6,25.6,0,0,1,119,69.23c.63,1.71,1.12,3.46,1.67,5.2.31,1,.63,2,.94,3Zm-1.3-2.23c-1.16-1.62-2.35-3.21-3.55-4.8-.48-.65-1-1.27-1.48-1.9A.93.93,0,0,0,115,70c0,.11-.15.25-.13.35a3.16,3.16,0,0,0,.37.84q2.39,3.57,4.82,7.11a2.44,2.44,0,0,0,.5.46l.29-.74A6.61,6.61,0,0,0,120.29,76.86Z"/><path class="cls-1" d="M100.87,34.39c.35-.7.75-.72,1.25-.09.06.08.11.18.17.26,1.7,2.49,3.41,5,5.08,7.46a9.23,9.23,0,0,1,1.12,2.13c1.06,3.14,2.07,6.31,3.08,9.47.18.57.12.62-.53.65a10.82,10.82,0,0,0-2,.1c-.53.13-.75,0-1-.4-1-1.86-2.1-3.71-3.2-5.54a19,19,0,0,1-2-4.28l-1.8-6c-.23-.8-.45-1.61-.69-2.47A11.84,11.84,0,0,1,100.87,34.39Zm1,2.83c1.43,1.94,2.88,3.86,4.33,5.79.25.33.51.66.79,1,0,.06.23.12.26.09s.19-.24.16-.34a2,2,0,0,0-.29-.65q-2.51-3.75-5-7.47a.55.55,0,0,0-.13-.17c-.1-.08-.24-.22-.32-.19s-.18.19-.22.31a3.66,3.66,0,0,0-.07.63A6.94,6.94,0,0,0,101.89,37.22Z"/><path class="cls-1" d="M92.4,67.2a2.07,2.07,0,0,0,.39-.43c.69-1.34,1.35-2.69,2-4a.71.71,0,0,0-.09-.86L93,59.67a.73.73,0,0,0-1-.24c-1,.46-2.07.86-3.1,1.3l-8.11,3.43c-.13.06-.26.11-.38.18a.82.82,0,0,0-.19.22c.1.07.19.2.3.22l4,.84,7,1.43C91.72,67.11,92,67.14,92.4,67.2Z"/><path class="cls-1" d="M98.53,55.13c-.12.31-.2.47-.24.63-.33,1.11-.64,2.22-1,3.33-.1.33-.23.4-.47.07a14.68,14.68,0,0,0-1-1.23c-.29-.31-1.34,0-1.41.36a.81.81,0,0,0,.23.54c.48.64,1,1.29,1.5,1.89A1,1,0,0,1,96.33,62c-.59,1.19-1.17,2.39-1.76,3.58-.06.13-.16.23-.21.36a.5.5,0,0,0,0,.27s.13,0,.19,0c1.27-.5,2.56-1,2.91-2.57a3.17,3.17,0,0,1,.17-.38c.11-.25.28-.32.47-.09s.38.5.57.74a.63.63,0,0,0,.84.18c.83-.36.86-.43.29-1.16-.38-.5-.77-1-1.17-1.49a1.38,1.38,0,0,1-.3-1.34,16.94,16.94,0,0,0,.31-4.49A2,2,0,0,0,98.53,55.13Z"/><path class="cls-1" d="M111.81,54.81a18.7,18.7,0,0,1,2,.2c.81.16.91.43.55,1.19a11.44,11.44,0,0,1-2.73,3.56c-.64.59-1,.56-1.37-.22-.63-1.25-1.23-2.52-1.8-3.8-.28-.63-.13-.85.54-.88.94,0,1.88,0,2.82,0Zm-2.17.72c-.39,0-.49.19-.31.54.59,1.18.19,1.32,1.69.72l2.34-.95a1.07,1.07,0,0,0,.23-.2,1,1,0,0,0-.27-.09h-1.89v0Z"/></svg>