<svg id="Layer_1" data-name="Layer 1" xmlns="http://www.w3.org/2000/svg" viewBox="0 0 144.79 144.79"><defs><style>.cls-1{fill:#fff;}</style></defs><path class="cls-1" d="M105.35,94.13c-3-1-6.06-2-9.11-3C83.19,87,70.11,83,57.1,78.77a94.12,94.12,0,0,1-18.29-8.09,14.16,14.16,0,0,1-1.4-.93c-1.95-1.47-2.39-2.7-1.48-5,1-2.63,2.22-5.23,3.4-7.8a3,3,0,0,1,3.61-1.79c4,.92,7.89,2,11.83,2.93a5.06,5.06,0,0,1,.67.17,6.64,6.64,0,0,0,5.83-.35,4.86,4.86,0,0,1,4.94,0C69,59.38,71.79,61,74.54,62.63c1.08.64,1.2,1.83,1.34,3.07-2.5.22-5,.44-7.44.61-.29,0-.6-.31-.9-.47C61,62.43,54.51,59.06,47.4,57a15.71,15.71,0,0,0-3.82-.44,1.58,1.58,0,0,0-1.19.76c-1.47,3.17-2.87,6.38-4.34,9.7.31.52.84.32,1.26-.12.64-.67,1.16-.48,1.89-.1,3.72,1.94,7.48,3.79,11.22,5.69a2.48,2.48,0,0,0,2.35,0c.8-.38,1.66-.63,2.54-1a4.73,4.73,0,0,0-.15-.51c-.5-1.07-.31-1.4.86-1.57,7.86-1.1,15.71-2.22,23.58-3.31,3.31-.45,6.62-.87,10-1.2a7.73,7.73,0,0,1,6.88,2.86C97.18,69,96,70.07,94.73,71.09a1.19,1.19,0,0,1-1,.14c-.8-.28-1.57-.68-2.34-1-.59.94-.53,1.27.36,1.75a58,58,0,0,0,5.38,2.76c1.93.76,2.31,2.23,2.45,4.15L94.8,76.57c-.77-.37-1.54-.77-2.31-1.14-1.38-.65-1.43-.63-2.35.71.42,1.08,2.52.62,2.31,2.53l-8.55-4-.27.21c.2.32.33.74.62.93A15.05,15.05,0,0,0,86.33,77C90.55,79,94.79,81.07,99,83.14a3.17,3.17,0,0,0,3.22-.07c1.86-1.13,3.67-2.34,5.49-3.55.85-.57,1.65-1.21,2.47-1.83a3.61,3.61,0,0,1,4-.39,30.84,30.84,0,0,1,3,1.67c.31.2.44.68.65,1l-.29.24-3.52-1.72-.29.2c.19.3.31.73.58.88,1.18.67,2.42,1.23,3.59,1.9a9.24,9.24,0,0,1,1.32,1.11V84.2c-1-.44-2-.85-3-1.34a1.06,1.06,0,0,0-1.39.23c-2.1,2-4.26,4-6.34,6a1.26,1.26,0,0,1-1.92.13l6.46-6.84c-.51-.2-.86-.47-1.15-.41a4.73,4.73,0,0,0-1.9.62c-2.27,1.6-4.56,3.1-7.53,2.84-.15,0-.33.12-.7.28l2.7,1.37c.69.35.77.82.34,1.49-.27-.09-.52-.16-.76-.26C98.38,86,92.65,83.67,87,81.28c-1-.42-1.78-.5-2.53.36a2.42,2.42,0,0,1-3.1.6C74.9,79.7,68.46,77.2,62,74.69c-1.72-.67-3.46-.37-5.22-.17a1.33,1.33,0,0,0,.55.42C69.44,79.62,81.6,84.09,94,87.75a66.61,66.61,0,0,0,13.17,2.82,16.39,16.39,0,0,1,2.69.69c-.84,1.13-1.48,2.21-3,1.18l-.76,1.69ZM58.19,70.31a2.85,2.85,0,0,0,3.58,2l28.67-5.74a5.05,5.05,0,0,0,.82-.3l-.11-.41Zm15-7.26c-3-2.68-6.85-4.51-9.39-2.74a39.33,39.33,0,0,1,4.77,2.39C70.12,63.7,71.53,63.26,73.23,63.05ZM59.1,60a5.58,5.58,0,0,0,.76.57c1.11.58,2.23,1.16,3.37,1.67.25.11.61-.06.92-.09-.16-.28-.26-.65-.49-.81a16.2,16.2,0,0,0-1.73-1L62,60l3.43-1.49C64.05,57.69,60.58,58.5,59.1,60Z"/><path class="cls-1" d="M44.42,37.76a2.15,2.15,0,0,1,.66,2.47c-1.29,5-2.72,9.93-5.71,14.25-.56.81-1,1.71-1.49,2.56l-2.81-.25A40.08,40.08,0,0,1,44.42,37.76Zm-5.69,9.81.39.15c1.78-2.43,3.6-4.84,5.32-7.32.25-.35,0-1,0-1.57l-.35,0c-1.74,2.6-3.5,5.18-5.22,7.79A2.62,2.62,0,0,0,38.73,47.57Z"/><path class="cls-1" d="M33.22,61.46l2,2.45c-.41,1.34-1.1,3.16-1.52,5-.82,3.61-3.09,6.39-5.09,9.33-.53.8-1.07,1.6-1.63,2.37-.16.22-.5.52-.66.48a1.14,1.14,0,0,1-.63-.66A3,3,0,0,1,25.59,79a85.77,85.77,0,0,1,2.74-8.68,69.23,69.23,0,0,1,3.93-7.22C32.56,62.59,32.88,62.06,33.22,61.46Zm-1.36,10.3-.38-.14C29.74,74,28,76.35,26.28,78.77c-.25.35,0,1,0,1.54l.34,0c1.71-2.53,3.44-5.06,5.12-7.61C31.87,72.49,31.81,72.09,31.86,71.76Z"/><path class="cls-1" d="M64.47,66.75l-6.3,1.31c-1.49.3-3,.57-4.46.92-.59.14-.91.07-1.17-.51-.51-1.11-1.12-2.17-1.6-3.29a1.31,1.31,0,0,1,.12-1.11c1.71-2.37,1.73-2.36,4.4-1.23l7.93,3.37C63.68,66.33,64,66.49,64.47,66.75Z"/><path class="cls-1" d="M46.67,66.32l-1-.53a3.5,3.5,0,0,1,.38-.54,4.18,4.18,0,0,0,1.24-4.53,7,7,0,0,1,0-2.37l1.11,3.59c1-.15,1-2.29,2.66-1.1a20.22,20.22,0,0,1-1.44,1.82,1.58,1.58,0,0,0-.27,2c.56,1.08,1.07,2.18,1.62,3.3-1.72-.24-2.52-1.39-3-3.18Z"/><path class="cls-1" d="M38,57.93c-.69,1.41-1.35,2.84-2.08,4.23a.88.88,0,0,1-.78.12q-1.47-1.78-2.81-3.66c-.09-.12.22-.75.38-.76,1.69-.15,3.38-.22,5.08-.31Zm-.64.2H32.88l-.07.31L36.56,60Z"/><path class="cls-1" d="M134.23,34.77c-1.84-2.58-3.67-5.17-5.55-7.72a1.1,1.1,0,0,1-.23-.48,72.89,72.89,0,0,0-14.94-13.76l-.31-.19c-1.76-1.07-3.5-2.17-5.27-3.21a67.51,67.51,0,0,0-17.06-7A115.78,115.78,0,0,0,79.3.35L79,.31C76.83.12,74.65,0,72.44,0h-.13c-1,0-2.07,0-3.09.08L68,.15,67,.22c-.45,0-.87.08-1.23.13-.93.12-1.86.24-2.79.33s-1.91.22-2.86.37c-.77.14-1.55.26-2.31.42h-.06c-1,.21-2.07.46-3.1.71l-1.59.44h0q-1.62.47-3.21,1a72.22,72.22,0,0,0-18.54,9.23,65.43,65.43,0,0,0-9.11,7.48,80.32,80.32,0,0,0-6.71,7.44A73.82,73.82,0,0,0,7.54,40.23l0,0c-.31.63-.61,1.26-.9,1.9-.06.12-.11.25-.17.37a73.51,73.51,0,0,0-4.86,14.8c-.14.63-.25,1.26-.37,1.89S1,60.18,1,60.66s-.13.79-.19,1.19A73.49,73.49,0,0,0,0,72.4c0,1.72.08,3.43.2,5.12,0,.38.09.77.15,1.15.44,2.89.64,5.83,1.24,8.69A69.47,69.47,0,0,0,7.76,104.9a73.67,73.67,0,0,0,11.65,16.71,71.14,71.14,0,0,0,14.32,11.91,70.31,70.31,0,0,0,10.11,5.36,76.17,76.17,0,0,0,15.81,4.73,85.62,85.62,0,0,0,10.94,1.15l1.28,0c1.7,0,3.4-.19,5.1-.25a63.27,63.27,0,0,0,12.15-1.77A69.32,69.32,0,0,0,106,136.43,74.79,74.79,0,0,0,121,125.93a72.17,72.17,0,0,0,17.63-24.36,73.74,73.74,0,0,0,6.14-26.92c0-.6,0-1.2,0-1.8,0-1.5-.2-3-.22-4.53a60,60,0,0,0-2-13.53,3.52,3.52,0,0,1-.15-.88,71.74,71.74,0,0,0-8-18.83Zm-62,89.93c-28.66,0-52.49-23.84-52.11-48.49,0-18.33,5.2-30.76,15.36-40.92A50.5,50.5,0,0,1,72.4,20,50.53,50.53,0,0,1,109.17,35.2a51.09,51.09,0,0,1,15.52,38A52.38,52.38,0,0,1,72.23,124.7Z"/></svg>