<?xml version="1.0" encoding="utf-8"?>
<!-- Generator: Adobe Illustrator 26.1.0, SVG Export Plug-In . SVG Version: 6.00 Build 0)  -->
<svg version="1.1" id="Layer_1" xmlns="http://www.w3.org/2000/svg" xmlns:xlink="http://www.w3.org/1999/xlink" x="0px" y="0px"
	 viewBox="0 0 180 180" style="enable-background:new 0 0 180 180;" xml:space="preserve">
<style type="text/css">
	.st0{fill:url(#SVGID_1_);}
	.st1{fill:#606060;}
	.st2{fill:#FFFFFF;}
</style>
<g>
	<g>
		<path class="st2" d="M90,18.18c-39.67,0-71.82,32.16-71.82,71.82c0,39.67,32.16,71.82,71.82,71.82
			c39.67,0,71.82-32.16,71.82-71.82C161.82,50.33,129.67,18.18,90,18.18z M90,142.25c-28.86,0-52.25-23.39-52.25-52.25
			S61.14,37.75,90,37.75S142.25,61.14,142.25,90S118.86,142.25,90,142.25z"/>
	</g>
	<g>
		<path class="st2" d="M90,45.66c-24.49,0-44.34,19.85-44.34,44.34c0,24.49,19.85,44.34,44.34,44.34s44.34-19.85,44.34-44.34
			C134.34,65.51,114.49,45.66,90,45.66z M110.64,108.77c-5.44,1.98-10.61,1.12-15.56-1.67c-0.48-0.27-0.94-0.56-1.49-0.9
			c0.39,2.65,1.12,5.09,2.2,7.42c1.61,3.45,3.78,6.45,7,8.58c0.15,0.1,0.33,0.28,0.33,0.43c0.03,0.77,0.02,1.54,0.02,2.36
			c-8.79,0-17.49,0-26.29,0c0-0.77-0.02-1.47,0.01-2.17c0.01-0.21,0.15-0.48,0.32-0.6c4.95-3.43,7.48-8.38,8.86-14.05
			c0.15-0.6,0.24-1.22,0.37-1.86c-1.44,0.72-2.77,1.52-4.19,2.09c-5.35,2.16-10.61,2.01-15.62-0.98
			c-7.06-4.22-9.25-12.76-5.26-20.09c1.93-3.54,4.71-6.29,7.9-8.67c5.62-4.19,10.88-8.77,15.04-14.46c1.95-2.66,3.53-5.59,5.28-8.4
			c0.14-0.23,0.26-0.48,0.44-0.8c0.09,0.13,0.15,0.19,0.18,0.26c4.08,8.33,10.09,15.05,17.27,20.81c2.07,1.66,4.23,3.23,6.22,5
			c3,2.66,5.31,5.82,6.42,9.74C122.22,98.32,118.18,106.02,110.64,108.77z"/>
	</g>
</g>
</svg>
