<?xml version="1.0" encoding="utf-8"?>
<!-- Generator: Adobe Illustrator 26.1.0, SVG Export Plug-In . SVG Version: 6.00 Build 0)  -->
<svg version="1.1" id="Layer_1" xmlns="http://www.w3.org/2000/svg" xmlns:xlink="http://www.w3.org/1999/xlink" x="0px" y="0px"
	 viewBox="0 0 180 180" style="enable-background:new 0 0 180 180;" xml:space="preserve">
<style type="text/css">
	.st0{fill:url(#SVGID_1_);}
	.st1{fill:#606060;}
	.st2{fill:#FFFFFF;}
</style>
<g>
	<path class="st2" d="M93.32,17.96c3.89,0.61,7.76,1.07,11.57,2.07c6,1.57,11.7,3.86,17.06,6.99c1.77,1.04,3.51,2.14,5.27,3.21
		c0.95,0.58,0.98,0.59,1.77-0.25c1.37-1.45,2.74-2.89,4.08-4.37c1.46-1.61,3.32-1.97,5.31-1.59c0.75,0.15,1.49,0.68,2.1,1.19
		c0.94,0.78,1.77,1.7,2.67,2.54c1.2,1.13,2.44,2.21,3.6,3.37c2.67,2.65,2.69,5.29,0.12,8c-1.37,1.45-2.72,2.92-4.11,4.35
		c-0.4,0.42-0.42,0.71-0.06,1.19c1.88,2.55,3.71,5.14,5.55,7.72c0.64,0.89,0.65,0.94,1.66,0.52c1.63-0.67,3.24-1.39,4.84-2.12
		c1.84-0.84,3.59-0.89,5.35,0.26c0.88,0.57,1.52,1.29,1.92,2.23c1.18,2.69,2.36,5.38,3.49,8.09c1.34,3.21-0.23,6.08-2.74,7.03
		c-1.81,0.68-3.55,1.54-5.34,2.3c-1.09,0.46-1.14,0.53-0.85,1.71c1.09,4.45,1.95,8.92,2.01,13.53c0.03,1.82,0.29,3.64,0.23,5.45
		c-0.35,9.64-2.24,18.94-6.19,27.8c-2.43,5.45-5.45,10.54-9.12,15.22c-2.57,3.28-5.39,6.33-8.51,9.14
		c-4.57,4.12-9.54,7.62-14.94,10.5c-5.35,2.85-11,4.96-16.92,6.34c-4.01,0.93-8.04,1.63-12.15,1.77c-1.99,0.07-3.99,0.34-5.97,0.24
		c-3.8-0.19-7.59-0.49-11.35-1.17c-5.46-0.99-10.71-2.6-15.81-4.73c-3.53-1.48-6.87-3.33-10.11-5.36
		c-5.31-3.33-10.06-7.33-14.32-11.91c-4.67-5.01-8.52-10.61-11.65-16.71c-2.86-5.57-4.89-11.44-6.17-17.54
		c-0.6-2.86-0.8-5.8-1.24-8.69c-0.53-3.51-0.41-7.05-0.23-10.56c0.19-3.62,0.71-7.22,1.47-10.78c1.28-5.94,3.25-11.65,5.94-17.08
		c2.19-4.43,4.89-8.55,7.93-12.47c2.06-2.65,4.35-5.08,6.71-7.44c2.78-2.79,5.87-5.23,9.11-7.48c5.73-3.97,11.92-7.04,18.54-9.23
		c4.29-1.42,8.67-2.51,13.18-2.95c0.93-0.09,1.86-0.21,2.79-0.33C82.87,17.54,90,17.44,93.32,17.96z M34.14,93.82
		c-0.38,24.65,23.45,48.44,52.11,48.49c29.1,0.04,52.18-23.56,52.46-51.47c0.15-14.85-5.04-27.55-15.52-38.03
		c-10.13-10.13-22.57-15.15-36.77-15.19c-14.3-0.04-26.8,5.16-36.92,15.28C39.34,63.06,34.17,75.49,34.14,93.82z"/>
	<path class="st2" d="M86.1,69.02c0-6.3,0-12.59,0-18.89c0-0.47,0-0.94,0.01-1.41c0.01-0.49,0.26-0.77,0.76-0.76
		c1.29,0.01,2.6-0.08,3.88,0.08c4.57,0.54,8.99,1.68,13.18,3.62c4.14,1.91,7.88,4.43,11.21,7.54c1.21,1.13,1.19,1.16,0.05,2.31
		c-6.36,6.37-12.73,12.73-19.09,19.1c-2.83,2.83-5.66,5.66-8.49,8.49c-0.29,0.29-0.58,0.58-0.92,0.8c-0.1,0.06-0.51-0.12-0.53-0.22
		c-0.07-0.52-0.07-1.05-0.07-1.58C86.1,81.73,86.1,75.38,86.1,69.02C86.1,69.02,86.1,69.02,86.1,69.02z"/>
	<path class="st2" d="M61.98,115.75c-0.23,0.53-0.31,0.98-0.56,1.25c-1.17,1.23-2.37,2.45-3.63,3.6c-0.46,0.42-1.1,0.71-1.77,0.22
		c-0.63-0.47-0.83-1.13-0.46-1.86c0.18-0.36,0.43-0.7,0.72-0.99c1.03-1.04,2.06-2.09,3.17-3.04c0.34-0.29,1.02-0.51,1.4-0.37
		C61.31,114.74,61.61,115.33,61.98,115.75z"/>
	<path class="st2" d="M47.16,91.46c-0.64,0-1.29,0.03-1.93-0.01c-0.4-0.02-0.82-0.07-1.18-0.22c-0.64-0.25-1.08-0.97-0.94-1.51
		c0.16-0.61,0.58-1.09,1.21-1.11c1.87-0.05,3.74-0.06,5.6,0c0.71,0.02,1.14,0.54,1.24,1.26c0.09,0.66-0.23,1.21-1.05,1.39
		c-0.96,0.2-1.96,0.19-2.94,0.27C47.17,91.5,47.16,91.48,47.16,91.46z"/>
	<path class="st2" d="M125.65,88.56c0.82,0,1.64-0.03,2.46,0.01c1.05,0.05,1.5,0.45,1.53,1.29c0.03,0.88-0.53,1.5-1.52,1.57
		c-0.87,0.06-1.76,0.02-2.63,0.02c-0.7,0-1.41,0.03-2.11-0.01c-1.04-0.07-1.63-0.63-1.62-1.46c0.01-0.89,0.54-1.37,1.61-1.41
		C124.12,88.54,124.88,88.57,125.65,88.56C125.65,88.56,125.65,88.56,125.65,88.56z"/>
	<path class="st2" d="M116.18,121.2c-0.46-0.23-0.82-0.32-1.05-0.55c-1.26-1.23-2.53-2.45-3.7-3.75c-0.74-0.82-0.61-1.41,0.17-2.1
		c0.4-0.35,0.8-0.46,1.27-0.16c0.24,0.16,0.52,0.29,0.72,0.49c1.17,1.15,2.32,2.33,3.47,3.49c0.4,0.4,0.69,0.89,0.32,1.4
		C117.06,120.47,116.59,120.81,116.18,121.2z"/>
	<path class="st2" d="M85.01,129.04c0-0.76-0.03-1.52,0.01-2.28c0.05-1.03,0.48-1.48,1.32-1.49c0.8-0.01,1.41,0.5,1.55,1.37
		c0.06,0.34,0.03,0.7,0.03,1.05c0,1.29,0.03,2.57-0.01,3.86c-0.04,1.01-0.66,1.63-1.47,1.61c-0.82-0.02-1.37-0.63-1.42-1.66
		C84.97,130.68,85,129.86,85.01,129.04C85,129.04,85.01,129.04,85.01,129.04z"/>
	<path class="st2" d="M56.69,58.76c0.49,0.29,0.89,0.43,1.16,0.7c1.18,1.14,2.35,2.29,3.48,3.49c0.64,0.67,0.65,1.5,0.16,2.05
		c-0.48,0.54-1.4,0.59-2.05-0.02c-1.28-1.21-2.5-2.48-3.72-3.74c-0.4-0.42-0.53-0.97-0.17-1.44C55.85,59.4,56.29,59.12,56.69,58.76z
		"/>
</g>
</svg>
