<?xml version="1.0" encoding="utf-8"?>
<!-- Generator: Adobe Illustrator 26.1.0, SVG Export Plug-In . SVG Version: 6.00 Build 0)  -->
<svg version="1.1" id="Layer_1" xmlns="http://www.w3.org/2000/svg" xmlns:xlink="http://www.w3.org/1999/xlink" x="0px" y="0px"
	 viewBox="0 0 180 180" style="enable-background:new 0 0 180 180;" xml:space="preserve">
<style type="text/css">
	.st0{fill:url(#SVGID_1_);}
	.st1{fill:#606060;}
	.st2{fill:#FFFFFF;}
</style>
<g>
	<path class="st2" d="M90,18.18c-39.67,0-71.82,32.16-71.82,71.82c0,39.67,32.16,71.82,71.82,71.82c39.67,0,71.82-32.16,71.82-71.82
		C161.82,50.33,129.67,18.18,90,18.18z M90,142.25c-28.86,0-52.25-23.39-52.25-52.25S61.14,37.75,90,37.75S142.25,61.14,142.25,90
		S118.86,142.25,90,142.25z"/>
</g>
<g>
	<path class="st2" d="M90,45.66c-24.49,0-44.34,19.85-44.34,44.34c0,24.49,19.85,44.34,44.34,44.34c24.49,0,44.34-19.85,44.34-44.34
		C134.34,65.51,114.49,45.66,90,45.66z M126.29,95.77c-0.21,0.74-0.56,1.35-1.14,1.85c-3.39,2.97-6.78,5.95-10.15,8.93
		c-0.6,0.53-1.29,0.64-2.05,0.64c-4.03,0-8.06,0.04-12.09,0.01c-0.92-0.01-1.62,0.24-2.28,0.87c-1.88,1.83-3.83,3.59-5.71,5.42
		c-0.63,0.61-1.3,0.87-2.18,0.86c-3.88-0.06-7.76-0.09-11.64-0.1c-0.84,0-1.47-0.29-2.04-0.89c-4.05-4.21-8.13-8.39-12.18-12.58
		c-0.29-0.3-0.51-0.66-0.77-1.01c0.16-0.14,0.22-0.23,0.27-0.23c1.65-0.03,3.31-0.08,4.96-0.05c0.28,0,0.59,0.3,0.81,0.53
		c1.81,1.84,3.61,3.69,5.41,5.54c1.18,1.22,2.33,2.47,3.55,3.66c0.31,0.3,0.83,0.55,1.26,0.56c3.07,0.05,6.14,0.06,9.2,0.01
		c0.46-0.01,1.01-0.28,1.36-0.6c1.87-1.73,3.73-3.48,5.53-5.28c0.81-0.82,1.67-1.21,2.84-1.19c3.84,0.06,7.69-0.02,11.53,0.06
		c1.4,0.03,2.53-0.32,3.46-1.35c0.22-0.24,0.48-0.45,0.92-0.85c-0.56-0.09-0.92-0.2-1.29-0.2c-1.15-0.03-2.29-0.01-3.44-0.03
		c-1.03-0.02-1.2-0.16-1.22-1.13c-0.06-2.69,0.05-2.26,2.17-2.28c2.11-0.02,4.21,0.03,6.32,0.08c0.82,0.02,1.44-0.26,2.11-0.75
		c1.75-1.28,2.84-2.91,3.31-5.03c0.25-1.11,0.67-2.19,1-3.29c0.3-1.01,0.19-1.16-0.89-1.17c-2.07-0.02-4.01-0.25-6.08-0.25
		c-3.03-0.01-6.19,0.24-9.23,0.21c-0.77-0.01-1.55-0.13-2.32-0.11c-1.23,0.04-2.03-0.61-2.85-1.42c-1.96-1.95-4.01-3.82-6.02-5.72
		c-0.46-0.43-0.99-0.41-1.56-0.37c-1.07,0.06-2.14,0.08-3.21,0.11c-0.85,0.02-1.58-0.27-2.27-0.74c-3.33-2.27-6.67-4.52-10.01-6.77
		c-0.64-0.43-1.29-0.83-2.02-1.29c-0.35,0.61-0.64,1.1-0.98,1.68c0.93,1.21,1.88,2.43,2.82,3.65c0.52,0.67,1.09,1.31,1.54,2.03
		c0.47,0.74,0.21,1.23-0.68,1.24c-1.66,0.02-3.33-0.04-4.99-0.1c-1.37-0.05-2.73-0.15-4.09-0.26c-0.78-0.07-1.23,0.34-1.65,0.9
		c-3.26,4.34-6.52,8.69-9.81,13.01c-2.6,3.41-5.23,6.79-7.87,10.17c-0.25,0.32-0.68,0.76-0.99,0.73c-0.59-0.06-0.49-0.72-0.56-1.18
		c-0.15-1.06-0.26-2.13-0.41-3.19c-0.11-0.78,0.08-1.43,0.57-2.06c3.1-3.96,6.18-7.93,9.26-11.89c2.65-3.41,5.31-6.82,7.93-10.26
		c0.45-0.59,0.95-0.76,1.62-0.71c0.85,0.07,1.69,0.13,2.54,0.17c0.14,0.01,0.28-0.07,0.65-0.16c-1.4-1.8-2.71-3.44-3.97-5.11
		c-1.25-1.65-2.66-3.2-3.88-5.17c0.67,0,1.1-0.05,1.52,0.01c4.02,0.59,8.04,1.19,12.06,1.83c0.6,0.1,1.22,0.35,1.73,0.68
		c3.79,2.44,7.55,4.93,11.34,7.37c0.41,0.26,0.94,0.42,1.43,0.44c1.33,0.05,2.66,0.04,3.99-0.01c0.84-0.04,1.48,0.22,2.06,0.83
		c1.84,1.92,3.76,3.77,5.57,5.72c0.87,0.93,1.78,1.36,3.08,1.36c6.99-0.05,13.97,0,20.96,0.01c1.78,0,1.85,0.13,1.34,1.84
		C128.59,87.9,127.43,91.83,126.29,95.77z M90.18,86.4l1.36-3.3l5.76,3.88L90.18,86.4z"/>
</g>
</svg>
