<?xml version="1.0" encoding="utf-8"?>
<!-- Generator: Adobe Illustrator 26.1.0, SVG Export Plug-In . SVG Version: 6.00 Build 0)  -->
<svg version="1.1" id="Layer_1" xmlns="http://www.w3.org/2000/svg" xmlns:xlink="http://www.w3.org/1999/xlink" x="0px" y="0px"
	 viewBox="0 0 180 180" style="enable-background:new 0 0 180 180;" xml:space="preserve">
<style type="text/css">
	.st0{fill:url(#SVGID_1_);}
	.st1{fill:#606060;}
	.st2{fill:#FFFFFF;}
</style>
<g>
	<path class="st2" d="M89.96,134.34c-24.2,0.12-44.42-19.81-44.3-44.57c0.11-24.04,19.73-44.28,44.65-44.11
		c24.95,0.17,44.18,20.74,44.04,44.59C134.2,114.54,114.23,134.51,89.96,134.34z M126.68,106.78c-1.45,1.31-2.37,3-3.3,4.66
		c-0.17,0.29-0.29,0.73,0.28,1.17c0.88-1.55,1.73-3.02,2.54-4.51c0.22-0.41,0.31-0.9,0.45-1.35L126.68,106.78z M102.1,119.13
		c0.46-0.23,1.04-0.37,1.41-0.74c2.8-2.75,5.56-5.55,8.35-8.31c0.52-0.51,0.59-0.98,0.35-1.64c-2.03-5.88-4.05-11.76-6.04-17.65
		c-0.23-0.68-0.58-0.98-1.3-1.08c-3.45-0.5-6.89-1.01-10.32-1.63c-1.06-0.19-1.71,0.06-2.42,0.82c-4.35,4.69-8.74,9.35-13.15,13.98
		c-0.66,0.69-0.72,1.3-0.45,2.14c0.83,2.56,1.65,5.12,2.39,7.71c0.25,0.88,0.7,1.33,1.55,1.57c3.81,1.09,7.59,2.32,11.43,3.3
		C96.56,118.27,99.28,118.61,102.1,119.13z M70.83,68.42c-0.22,0.14-0.6,0.28-0.84,0.54c-2.44,2.56-4.85,5.14-7.28,7.7
		c-0.41,0.43-0.49,0.89-0.39,1.45c1.13,6.11,2.27,12.22,3.37,18.34c0.14,0.76,0.49,1.14,1.22,1.34c2.72,0.75,5.43,1.54,8.14,2.33
		c0.71,0.21,1.22,0.1,1.76-0.47c4.24-4.56,8.5-9.09,12.78-13.61c0.51-0.54,0.66-1.05,0.49-1.78c-0.8-3.43-1.57-6.88-2.31-10.33
		c-0.18-0.82-0.53-1.26-1.4-1.48c-4.7-1.18-9.39-2.43-14.08-3.65C71.86,68.69,71.43,68.58,70.83,68.42z M121.18,78.59
		c0,0.02,0,0.05,0,0.07c-2.16-0.09-4.32-0.17-6.48-0.29c-0.82-0.05-1.28,0.22-1.62,0.99c-1.09,2.46-2.23,4.9-3.39,7.32
		c-0.37,0.78-0.36,1.47-0.08,2.28c1.6,4.58,3.15,9.17,4.72,13.76c0.54,1.58,1.11,3.16,1.61,4.76c0.22,0.72,0.62,1,1.35,0.92
		c0.79-0.09,1.58-0.18,2.37-0.18c0.84,0.01,1.36-0.35,1.83-1.04c2.01-2.95,4.07-5.87,6.15-8.78c2.86-4.01,2.86-4,2.84-8.98
		c-0.02-3.24-0.5-6.41-1.28-9.54c-0.18-0.74-0.53-0.99-1.28-1.01C125.67,78.81,123.42,78.68,121.18,78.59z M100.38,58.66
		c-0.03,0-0.07,0-0.1,0c0-0.26,0.01-0.53,0-0.79c-0.07-2.03-0.16-4.05-0.19-6.08c-0.01-0.73-0.29-1.1-1.02-1.26
		c-4.64-1.05-9.32-1.34-14.05-0.71c-0.53,0.07-1.09,0.35-1.53,0.68c-1.17,0.87-2.28,1.81-3.41,2.72c-2.64,2.13-5.28,4.27-7.94,6.37
		c-0.62,0.49-0.92,0.97-0.68,1.79c0.24,0.8,0.36,1.63,0.48,2.46c0.1,0.72,0.48,1.01,1.18,1.19c5.54,1.42,11.07,2.9,16.62,4.32
		c0.47,0.12,1.07,0.07,1.53-0.1c2.8-1.06,5.58-2.19,8.37-3.26c0.67-0.26,0.95-0.64,0.92-1.38
		C100.45,62.62,100.43,60.64,100.38,58.66z M104.23,52.11c-0.11,0.26-0.2,0.38-0.2,0.49c0.13,4.72,0.26,9.44,0.39,14.15
		c0.02,0.67,0.31,1.15,0.81,1.58c2.08,1.78,4.16,3.55,6.19,5.38c0.64,0.58,1.31,0.78,2.14,0.8c3.7,0.11,7.4,0.28,11.1,0.42
		c0.87,0.03,1.74,0,2.61,0c-0.27-2.53-4.28-8.93-7.91-12.75C115.1,57.68,110.08,54.31,104.23,52.11z M106.8,126.86
		c-0.9-1.22-1.69-2.23-2.4-3.27c-0.4-0.58-0.9-0.7-1.56-0.77c-2.45-0.25-4.91-0.46-7.33-0.92c-5.64-1.07-11.09-2.81-16.49-4.73
		c-0.63-0.22-1.15-0.25-1.75,0.08c-1.46,0.81-2.96,1.56-4.43,2.36c-0.9,0.49-0.94,0.58-0.69,1.57c0.38,1.49,0.87,2.96,1.17,4.47
		c0.22,1.14,0.84,1.71,1.89,2.1c5.47,2.05,11.1,3.03,16.96,2.71c4.08-0.22,8.02-1.05,11.85-2.45
		C104.87,127.69,105.7,127.31,106.8,126.86z M56.57,106.56c0.84,0,1.68,0.01,2.52,0c1.09-0.02,1.11-0.02,1.4-1
		c0.55-1.86,1.1-3.72,1.6-5.6c0.12-0.45,0.14-0.96,0.06-1.41c-1.16-6.47-2.34-12.92-3.5-19.39c-0.13-0.7-0.42-1.09-1.16-1.2
		c-1.39-0.21-2.79-0.44-4.17-0.74c-1.85-0.41-1.71-0.17-2.16,1.37c-1.92,6.56-2.23,13.21-0.74,19.88c0.52,2.31,1.33,4.56,2.09,6.82
		c0.44,1.29,0.51,1.27,1.93,1.27C55.15,106.57,55.86,106.56,56.57,106.56z M68.49,124.31c0.09-0.05,0.19-0.11,0.28-0.16
		c-0.02-0.25-0.02-0.51-0.07-0.76c-0.28-1.47-0.53-2.94-0.88-4.4c-0.1-0.44-0.39-0.88-0.71-1.22c-1.52-1.66-3.06-3.29-4.62-4.92
		c-0.76-0.8-1.42-1.86-2.36-2.25c-0.99-0.41-2.25-0.16-3.39-0.17c-0.45,0-0.9,0.08-1.6,0.14C58.63,116.37,63.03,120.85,68.49,124.31
		z M73.77,53.26c-2.73,0.62-8.5,4.29-9.23,5.68c1.54-0.2,2.96-0.41,4.16-1.5c1.37-1.24,2.87-2.34,4.31-3.5
		C73.28,53.73,73.52,53.49,73.77,53.26z"/>
	<g>
		<path class="st2" d="M90,18.18c-39.67,0-71.82,32.16-71.82,71.82c0,39.67,32.16,71.82,71.82,71.82
			c39.67,0,71.82-32.16,71.82-71.82C161.82,50.33,129.67,18.18,90,18.18z M90,142.25c-28.86,0-52.25-23.39-52.25-52.25
			S61.14,37.75,90,37.75S142.25,61.14,142.25,90S118.86,142.25,90,142.25z"/>
	</g>
</g>
</svg>
