<?xml version="1.0" encoding="utf-8"?>
<!-- Generator: Adobe Illustrator 26.1.0, SVG Export Plug-In . SVG Version: 6.00 Build 0)  -->
<svg version="1.1" id="Layer_1" xmlns="http://www.w3.org/2000/svg" xmlns:xlink="http://www.w3.org/1999/xlink" x="0px" y="0px"
	 viewBox="0 0 180 180" style="enable-background:new 0 0 180 180;" xml:space="preserve">
<style type="text/css">
	.st0{fill:url(#SVGID_1_);}
	.st1{fill:#606060;}
	.st2{fill:#FFFFFF;}
</style>
<g>
	<g>
		<path class="st2" d="M90,18.18c-39.67,0-71.82,32.16-71.82,71.82c0,39.67,32.16,71.82,71.82,71.82
			c39.67,0,71.82-32.16,71.82-71.82C161.82,50.33,129.67,18.18,90,18.18z M90,142.25c-28.86,0-52.25-23.39-52.25-52.25
			S61.14,37.75,90,37.75S142.25,61.14,142.25,90S118.86,142.25,90,142.25z"/>
	</g>
	<g>
		<path class="st2" d="M92.66,77.04c-2.27,0-3.71,1.96-3.71,4.12c0,2.63,1.6,5.41,5.57,5.41c2.06,0,3.81-0.52,3.81-2.22
			C98.33,79.98,95.24,77.04,92.66,77.04z"/>
		<path class="st2" d="M65.46,81.32l-5.56,8.45v0.1h7.16v-8.25c0-2.01,0.31-4.12,0.31-4.12h-0.1
			C67.26,77.51,66.49,79.77,65.46,81.32z"/>
		<path class="st2" d="M90,45.66c-24.49,0-44.34,19.85-44.34,44.34c0,24.49,19.85,44.34,44.34,44.34
			c24.49,0,44.34-19.85,44.34-44.34C134.34,65.51,114.49,45.66,90,45.66z M80.35,97.35h-4.38v8.91h-8.92v-8.91H50.72v-5.46
			l14.22-22.47h11.03v20.46h4.38V97.35z M90.03,106.88c-2.73,0-5.67-0.41-8.14-1.6l2.42-7.73c1.44,0.62,3.25,1.08,5.05,1.08
			c4.33,0,6.8-2.68,7.94-6.08h-0.1c-0.82,0.67-3.3,1.29-5.05,1.29c-7.68,0-12.06-6.29-12.06-12.62c0-6.24,4.59-12.42,12.57-12.42
			c7.42,0,14.94,5.62,14.94,17.62C107.61,96.42,101.47,106.88,90.03,106.88z M117.86,106.88c-3.81,0-7.88-1.29-10.82-3.92l3.81-5.82
			c1.96,1.65,4.69,2.68,7.21,2.68c1.8,0,2.42-0.57,2.42-1.39c0-2.83-12.42-2.22-12.42-10.92c0-5.46,4.9-8.4,11.03-8.4
			c3.4,0,6.8,0.88,9.48,3.04l-3.04,6.18c-1.55-1.24-4.43-2.17-6.7-2.17c-1.91,0-2.47,0.57-2.47,1.29c0,2.78,12.42,2.11,12.42,10.72
			C128.78,103.12,124.66,106.88,117.86,106.88z"/>
	</g>
</g>
</svg>
