<?xml version="1.0" encoding="utf-8"?>
<!-- Generator: Adobe Illustrator 26.1.0, SVG Export Plug-In . SVG Version: 6.00 Build 0)  -->
<svg version="1.1" id="Layer_1" xmlns="http://www.w3.org/2000/svg" xmlns:xlink="http://www.w3.org/1999/xlink" x="0px" y="0px"
	 viewBox="0 0 180 180" style="enable-background:new 0 0 180 180;" xml:space="preserve">
<style type="text/css">
	.st0{fill:url(#SVGID_1_);}
	.st1{fill:#606060;}
	.st2{fill:#FFFFFF;}
</style>
<g>
	<g>
		<path class="st2" d="M90,18.18c-39.67,0-71.82,32.16-71.82,71.82c0,39.67,32.16,71.82,71.82,71.82
			c39.67,0,71.82-32.16,71.82-71.82C161.82,50.33,129.67,18.18,90,18.18z M90,142.25c-28.86,0-52.25-23.39-52.25-52.25
			S61.14,37.75,90,37.75S142.25,61.14,142.25,90S118.86,142.25,90,142.25z"/>
	</g>
	<g>
		<path class="st2" d="M70.5,63.62c-3.61,0-6.72,2.87-6.68,6.78c0.03,3.6,2.92,6.59,6.71,6.63c3.68-0.05,6.7-2.91,6.69-6.72
			C77.21,66.54,74.25,63.62,70.5,63.62z"/>
		<path class="st2" d="M90.31,83.28c-3.85-0.05-6.81,2.84-6.82,6.71c-0.01,3.93,3.22,6.75,6.71,6.67c3.61,0.06,6.65-2.96,6.69-6.63
			C96.92,86.5,94.14,83.33,90.31,83.28z"/>
		<path class="st2" d="M109.5,102.98c-3.34-0.11-6.69,2.7-6.68,6.7c0.01,3.67,2.86,6.72,6.79,6.68c3.91-0.05,6.61-3.15,6.61-6.72
			C116.22,105.72,112.86,102.85,109.5,102.98z"/>
		<path class="st2" d="M90,45.66c-24.49,0-44.34,19.85-44.34,44.34c0,24.49,19.85,44.34,44.34,44.34s44.34-19.85,44.34-44.34
			C134.34,65.51,114.49,45.66,90,45.66z M102.23,70.31c0-2.26,0-4.52,0-6.79c0-0.13,0-0.27,0-0.4c0.02-0.44,0.03-0.46,0.45-0.48
			c0.11-0.01,0.22,0,0.34,0l13.64,0c0.84,0,0.82-0.06,0.82,0.79c0,4.59,0,9.18,0,13.77c0,0.13,0,0.27,0,0.4
			c0.01,0.24-0.1,0.38-0.36,0.37c-0.16,0-0.31,0-0.47,0c-4.55,0-9.09,0-13.64,0c-0.09,0-0.18,0-0.27,0
			c-0.5-0.02-0.51-0.02-0.52-0.55C102.22,75.06,102.23,72.69,102.23,70.31C102.23,70.31,102.23,70.31,102.23,70.31z M102.23,82.9
			c0.01-0.59,0.02-0.6,0.6-0.61l14.04,0c0.6,0,0.6,0.01,0.61,0.6c0.01,0.34,0,0.67,0,1.01c0.03,4.3,0.05,8.59,0.08,12.89
			c0.01,0.92,0.01,0.83-0.85,0.83c-2.28,0-4.57,0-6.85,0c-2.24,0-4.48,0-6.72,0c-0.16,0-0.31,0.01-0.47,0
			c-0.42-0.02-0.43-0.03-0.45-0.48c-0.01-0.18,0-0.36,0-0.54c0-4.41,0-8.82,0-13.23C102.22,83.22,102.22,83.06,102.23,82.9z
			 M82.93,62.64c0.13,0.01,0.27,0,0.4,0c4.55,0,9.1,0,13.64,0c0.11,0,0.22,0,0.34,0c0.51,0.02,0.52,0.02,0.52,0.54
			c0,2.4,0,4.79,0,7.19c0,2.26,0,4.53,0,6.79c0,0.13-0.01,0.27,0,0.4c0.01,0.27-0.09,0.43-0.38,0.41c-0.13-0.01-0.27,0-0.4,0
			l-13.78,0c-0.76,0-0.76,0-0.76-0.78c0-4.59,0-9.18,0-13.78c0-0.11,0.01-0.22,0-0.34C82.48,62.79,82.6,62.62,82.93,62.64z
			 M78.19,116.49c0,0.18,0,0.36,0,0.54c0,0.22-0.11,0.33-0.33,0.33c-0.13,0-0.27,0-0.4,0c-4.61,0-9.23,0-13.84,0
			c-0.81,0-0.76,0.03-0.76-0.77c0-4.61,0-9.22,0-13.84c0-0.04,0-0.09,0-0.13c0.01-0.58,0.01-0.59,0.61-0.59l14.1-0.01
			c0.62,0,0.62,0,0.62,0.64c0,2.35,0,4.7,0,7.05c0,0,0,0,0,0C78.19,111.96,78.19,114.22,78.19,116.49z M78.19,96.87
			c0,0.81,0.03,0.76-0.78,0.76l-13.85,0c-0.09,0-0.18-0.01-0.27,0c-0.3,0.02-0.47-0.09-0.44-0.42c0.01-0.13,0-0.27,0-0.4
			c0-4.57,0-9.14,0-13.71c0-0.07,0-0.13,0-0.2c0.01-0.58,0.01-0.59,0.61-0.59c2.13,0,4.26,0,6.39,0c0.25,0,0.49,0,0.74,0
			c2.22,0,4.44,0,6.66,0c0.16,0,0.31-0.01,0.47,0c0.45,0.02,0.46,0.04,0.48,0.45c0,0.09,0,0.18,0,0.27
			C78.19,87.63,78.19,92.25,78.19,96.87z M70.4,79.79c-5.17-0.04-9.39-4.1-9.36-9.6c0.03-5.39,4.54-9.48,9.53-9.33
			c5.05-0.12,9.39,4.25,9.43,9.36C80.03,74.98,76.3,79.84,70.4,79.79z M97.83,103.12c0,2.17,0,4.34,0,6.52c0,2.26,0,4.52,0,6.78
			c0,0.11,0,0.22,0,0.34c-0.01,0.59-0.01,0.6-0.61,0.6l-13.84,0c-0.18,0-0.36,0-0.54-0.01c-0.21-0.01-0.32-0.13-0.33-0.34
			c-0.01-0.13-0.01-0.27-0.01-0.4c0-4.57,0-9.14,0-13.7c0-0.09,0-0.18,0-0.27c0.02-0.59,0.02-0.6,0.6-0.6
			c2.33-0.01,4.65-0.01,6.98-0.01c2.3,0,4.61,0,6.91,0c0.16,0,0.31,0.01,0.47,0c0.25-0.01,0.37,0.12,0.36,0.37
			C97.83,102.63,97.83,102.87,97.83,103.12z M90.08,99.46c-5.67-0.06-9.43-4.76-9.35-9.46c-0.09-5.11,4.21-9.54,9.51-9.5
			c4.96,0.03,9.43,3.95,9.44,9.46C99.67,95.22,95.57,99.52,90.08,99.46z M109.68,119.14c-5.52,0.08-9.63-4.51-9.64-9.45
			c-0.02-4.9,3.99-9.55,9.52-9.51c5.51,0.04,9.55,4.58,9.41,9.52C119.12,114.48,115.01,119.06,109.68,119.14z"/>
	</g>
</g>
</svg>
