<?xml version="1.0" encoding="utf-8"?>
<!-- Generator: Adobe Illustrator 26.1.0, SVG Export Plug-In . SVG Version: 6.00 Build 0)  -->
<svg version="1.1" id="Layer_1" xmlns="http://www.w3.org/2000/svg" xmlns:xlink="http://www.w3.org/1999/xlink" x="0px" y="0px"
	 viewBox="0 0 180 180" style="enable-background:new 0 0 180 180;" xml:space="preserve">
<style type="text/css">
	.st0{fill:url(#SVGID_1_);}
	.st1{fill:#606060;}
	.st2{fill:#FFFFFF;}
</style>
<g>
	<g>
		<path class="st2" d="M90,18.18c-39.67,0-71.82,32.16-71.82,71.82c0,39.67,32.16,71.82,71.82,71.82
			c39.67,0,71.82-32.16,71.82-71.82C161.82,50.33,129.67,18.18,90,18.18z M90,142.25c-28.86,0-52.25-23.39-52.25-52.25
			S61.14,37.75,90,37.75S142.25,61.14,142.25,90S118.86,142.25,90,142.25z"/>
	</g>
	<g>
		<path class="st2" d="M64.17,81.5c-0.48,1.32,0.09,2.12,1.5,2.12c2.26-0.01,5.2-2.1,5.94-4.22c0.45-1.29-0.09-2.07-1.47-2.09
			C67.94,77.29,64.94,79.39,64.17,81.5z"/>
		<path class="st2" d="M110.93,77.32c-1.23,0.12-1.7,0.86-1.29,2.02c0.76,2.17,3.59,4.22,5.9,4.28c1.3,0.03,1.92-0.6,1.69-1.72
			C116.75,79.66,113.22,77.09,110.93,77.32z"/>
		<path class="st2" d="M66.76,67.03c0-1.67,0-3.18,0-4.79c-2.09,0-4.1,0-6.13,0c0,1.45,0,2.84,0,4.3
			C62.76,65.82,64.85,64.67,66.76,67.03z"/>
		<path class="st2" d="M124.52,62.19c-0.47,0.02-0.95,0.03-1.42,0.04c-0.05,0-0.1,0.06-0.22,0.13c0,1.75-0.02,3.54,0.02,5.33
			c0.01,0.26,0.29,0.53,0.48,0.76c0.8,0.97,1.72,1.85,2.4,2.89c0.71,1.09,0.63,2.24-0.17,3.37c-2.19,3.06-4.34,6.14-6.48,9.23
			c-0.86,1.25-2.03,1.87-3.5,1.83c-0.68-0.02-0.9,0.27-1.12,0.82c-2.56,6.35-5.15,12.68-7.73,19.02c-0.08,0.21-0.19,0.41-0.34,0.72
			c-0.53-0.45-1.03-0.8-1.43-1.25c-0.14-0.16-0.1-0.6,0-0.85c1.96-4.88,3.94-9.75,5.91-14.62c0.58-1.44,1.16-2.88,1.73-4.29
			c-1.23-0.86-2.43-1.69-3.72-2.59c-1.12,0.96-2.33,1.97-3.53,3c-11.17,9.55-22.33,19.1-33.5,28.64c-1.5,1.28-2.98,2.57-4.5,3.83
			c-0.3,0.25-0.73,0.51-1.07,0.48c-0.33-0.02-0.84-0.37-0.9-0.66c-0.08-0.38,0.06-0.98,0.33-1.24c1.22-1.15,2.52-2.21,3.79-3.29
			c12.53-10.71,25.06-21.43,37.6-32.13c0.49-0.42,0.66-0.78,0.45-1.42c-0.45-1.41-0.2-2.71,0.68-3.92c1.21-1.66,2.39-3.35,3.53-5.06
			c0.26-0.39,0.43-0.91,0.44-1.37c0.04-2.43,0.02-4.87,0.02-7.42c-0.73,0-1.4,0.02-2.06,0c-0.86-0.03-1.34-0.44-1.3-1.11
			c0.05-0.81,0.59-1.07,1.33-1.07c4.13,0,8.26,0,12.39,0c-8.1-8.82-19.73-14.34-32.65-14.34c-12.92,0-24.55,5.53-32.65,14.35
			c4.57-0.01,9.13-0.01,13.7,0c0.83,0,1.38,0.46,1.32,1.09c-0.07,0.79-0.59,1.09-1.34,1.08c-0.64-0.01-1.28,0-2.01,0
			c0,1.66,0.13,3.22-0.03,4.76c-0.25,2.42,0.35,4.48,1.99,6.29c0.74,0.82,1.27,1.83,1.94,2.73c0.94,1.25,1.2,2.61,0.73,4.08
			c-0.18,0.56-0.07,0.88,0.39,1.27c4.77,4.05,9.52,8.12,14.28,12.19c0.22,0.19,0.44,0.39,0.74,0.66c-0.54,0.47-1.06,0.92-1.65,1.44
			c-5.05-4.31-10.06-8.6-15.06-12.87c-1.23,0.86-2.43,1.7-3.71,2.6c0.57,1.42,1.16,2.94,1.78,4.45c1.91,4.71,3.81,9.42,5.77,14.11
			c0.33,0.79,0.28,1.29-0.47,1.73c-0.3,0.17-0.54,0.44-0.91,0.74c-1.48-3.62-2.91-7.13-4.34-10.64c-1.25-3.07-2.5-6.15-3.73-9.23
			c-0.2-0.5-0.44-0.71-1.03-0.7c-1.55,0.03-2.75-0.63-3.64-1.93c-2.06-3-4.13-6-6.28-8.94c-0.98-1.34-1.01-2.62-0.13-3.9
			c0.63-0.91,1.47-1.66,2.17-2.53c0.25-0.31,0.51-0.73,0.52-1.1c0.06-1.7,0.02-3.4,0.02-5.21c-0.72,0-1.36,0-2,0
			c-0.29,0-0.54-0.06-0.76-0.16c-6.22,7.63-9.95,17.37-9.95,27.98c0,24.49,19.85,44.34,44.34,44.34s44.34-19.85,44.34-44.34
			C134.34,79.46,130.66,69.79,124.52,62.19z M62.81,121.13c-0.64-0.07-1-0.46-0.98-1.12c0.02-0.68,0.44-1,1.06-1.06
			c0.57-0.05,1.11,0.54,1.09,1.14C63.95,120.72,63.43,121.2,62.81,121.13z M64.62,105.53c-0.02-1.25,0.97-2.28,2.19-2.29
			c1.14-0.02,2.22,1.05,2.23,2.19c0.01,1.24-0.99,2.28-2.21,2.3C65.66,107.73,64.64,106.72,64.62,105.53z M75.9,120.03
			c-0.71,0.01-1.2-0.48-1.18-1.11c0.02-0.67,0.43-1.01,1.05-1.07c0.59-0.06,1.12,0.5,1.1,1.11
			C76.84,119.62,76.45,119.94,75.9,120.03z M83.17,125.37c-0.42-0.13-0.85-0.61-1.04-1.04c-1.04-2.4-2-4.83-2.98-7.25
			c-0.51-1.25-0.97-2.53-1.54-3.75c-0.33-0.7-0.22-1.13,0.4-1.53c0.32-0.2,0.58-0.48,1.01-0.84c0.75,1.84,1.46,3.54,2.15,5.25
			c1.03,2.53,2.06,5.06,3.07,7.6C84.59,124.71,83.99,125.62,83.17,125.37z M93.69,113.23c-0.55,1.04-1.02,2.11-1.61,3.36
			c-0.53-1.12-1.04-2.09-1.45-3.09c-0.26-0.62-0.66-0.99-1.27-1.23c-0.89-0.34-1.77-0.73-2.83-1.18c1.17-0.5,2.16-0.89,3.1-1.35
			c0.33-0.16,0.66-0.48,0.83-0.81c0.56-1.05,1.05-2.15,1.63-3.36c0.56,1.21,1.02,2.29,1.56,3.32c0.18,0.35,0.54,0.68,0.9,0.86
			c0.93,0.47,1.9,0.85,3.03,1.34c-1.14,0.49-2.12,0.87-3.06,1.34C94.19,112.59,93.86,112.9,93.69,113.23z M95.88,128.44
			c-0.6-0.07-1.07-0.65-0.95-1.25c0.12-0.64,0.55-0.93,1.21-0.91c0.63,0.12,0.97,0.5,0.95,1.15
			C97.07,128.03,96.46,128.51,95.88,128.44z M103.33,114.08c-1.41,3.49-2.83,6.97-4.25,10.45c-0.32,0.78-0.9,1.08-1.5,0.8
			c-0.69-0.33-0.79-0.9-0.53-1.56c1.67-4.14,3.36-8.27,5.04-12.41c0.04-0.1,0.13-0.19,0.2-0.28c0.1,0.05,0.19,0.08,0.26,0.13
			C104.02,112.35,104.03,112.35,103.33,114.08z M108.37,121.72c-1.17,0.02-2.22-0.99-2.24-2.16c-0.02-1.27,0.93-2.26,2.18-2.28
			c1.24-0.02,2.23,0.97,2.22,2.23C110.54,120.72,109.57,121.7,108.37,121.72z M113.98,118.31c-1.67-1.4-3.31-2.82-4.96-4.23
			c-5.38-4.6-10.77-9.2-16.15-13.8c-0.2-0.17-0.38-0.35-0.65-0.61c0.6-0.51,1.11-0.93,1.66-1.4c1.59,1.36,3.13,2.68,4.67,3.99
			c5.58,4.77,11.17,9.54,16.73,14.34c0.34,0.3,0.66,0.89,0.62,1.31C115.81,118.78,114.78,118.98,113.98,118.31z M116.22,98.7
			c-1.21,0.01-2.18-0.93-2.21-2.14c-0.03-1.27,0.92-2.25,2.17-2.27c1.23-0.01,2.25,1,2.23,2.23C118.4,97.72,117.42,98.7,116.22,98.7
			z"/>
		<path class="st2" d="M117.43,65.65c1.08,0.17,2.13,0.51,3.24,0.79c0-1.38,0-2.75,0-4.2c-2.09,0-4.1,0-6.13,0c0,1.6,0,3.13,0,4.87
			C115.3,65.93,116.27,65.47,117.43,65.65z"/>
		<path class="st2" d="M124.95,62.17c0.88-0.04,1.33-0.42,1.29-1.11c-0.05-0.83-0.62-1.06-1.34-1.06c-0.75,0-1.5,0-2.25,0
			c0.65,0.71,1.27,1.43,1.87,2.18C124.66,62.18,124.81,62.18,124.95,62.17z"/>
		<path class="st2" d="M56.32,60.01c-0.81,0-1.39,0.49-1.32,1.1c0.05,0.47,0.28,0.75,0.61,0.91c0.56-0.69,1.14-1.36,1.74-2.01
			C57.01,60.01,56.66,60.01,56.32,60.01z"/>
	</g>
</g>
</svg>
