<?xml version="1.0" encoding="utf-8"?>
<!-- Generator: Adobe Illustrator 26.1.0, SVG Export Plug-In . SVG Version: 6.00 Build 0)  -->
<svg version="1.1" id="Layer_1" xmlns="http://www.w3.org/2000/svg" xmlns:xlink="http://www.w3.org/1999/xlink" x="0px" y="0px"
	 viewBox="0 0 180 180" style="enable-background:new 0 0 180 180;" xml:space="preserve">
<style type="text/css">
	.st0{fill:url(#SVGID_1_);}
	.st1{fill:#606060;}
	.st2{fill:#FFFFFF;}
</style>
<g>
	<g>
		<path class="st2" d="M90,18.18c-39.67,0-71.82,32.16-71.82,71.82c0,39.67,32.16,71.82,71.82,71.82
			c39.67,0,71.82-32.16,71.82-71.82C161.82,50.33,129.67,18.18,90,18.18z M90,142.25c-28.86,0-52.25-23.39-52.25-52.25
			S61.14,37.75,90,37.75S142.25,61.14,142.25,90S118.86,142.25,90,142.25z"/>
	</g>
	<g>
		<path class="st2" d="M107.05,107.88c-1.46,0.02-2.64,1.21-2.64,2.65c0,1.49,1.23,2.71,2.7,2.69c1.45-0.02,2.64-1.22,2.64-2.67
			C109.75,109.06,108.54,107.86,107.05,107.88z"/>
		<path class="st2" d="M72.96,107.87c-1.45,0-2.66,1.18-2.67,2.63c-0.02,1.49,1.19,2.72,2.67,2.72c1.44,0,2.65-1.19,2.67-2.64
			C75.65,109.09,74.45,107.87,72.96,107.87z"/>
		<path class="st2" d="M66.02,88.61c0-1.49-1.23-2.7-2.71-2.68c-1.43,0.02-2.63,1.24-2.63,2.68c0,1.47,1.23,2.68,2.72,2.66
			C64.87,91.26,66.03,90.08,66.02,88.61z"/>
		<path class="st2" d="M65.33,97.59c-1.43-0.01-2.66,1.2-2.68,2.63c-0.03,1.48,1.19,2.71,2.67,2.71c1.47,0,2.66-1.17,2.67-2.62
			C68.01,98.81,66.82,97.59,65.33,97.59z"/>
		<path class="st2" d="M114.75,97.59c-1.46-0.01-2.67,1.15-2.7,2.6c-0.04,1.5,1.14,2.72,2.63,2.74c1.48,0.02,2.71-1.19,2.71-2.68
			C117.39,98.82,116.18,97.6,114.75,97.59z"/>
		<path class="st2" d="M90,45.66c-24.49,0-44.34,19.85-44.34,44.34c0,24.49,19.85,44.34,44.34,44.34
			c24.49,0,44.34-19.85,44.34-44.34C134.34,65.51,114.49,45.66,90,45.66z M120.81,97.41c-1.14,7.1-4.72,12.69-10.23,17.16
			c-2.45,1.98-5.05,3.7-7.87,5.1c-0.42,0.21-0.58,0.46-0.65,0.93c-0.25,1.77-1.19,3.07-2.83,3.84c-2.46,1.15-5.05,1.37-7.72,1.21
			c-0.99-0.06-1.99-0.06-2.98,0c-2.52,0.15-4.98-0.06-7.34-1.03c-1.88-0.78-2.96-2.16-3.26-4.18c-0.04-0.28-0.34-0.61-0.6-0.75
			c-3.74-1.95-7.16-4.32-10.22-7.23c-4.51-4.3-7.13-9.57-7.96-15.71c-0.33-2.44-0.49-4.9-0.61-6.2c0.14-11.99,3.04-21.96,9.13-30.95
			c1.19-1.76,2.77-1.74,3.99,0.02c0.55,0.8,1.08,1.61,1.66,2.39c0.63,0.85,0.68,1.69,0.24,2.65c-2.26,4.93-3.99,10.04-5,15.38
			c-0.85,4.5-1.14,9.02-0.28,13.56c0.74,3.91,2.42,7.34,5.11,10.29c3.24,3.55,6.89,6.48,11.43,8.23c3.76,1.45,7.41,1.29,11.07-0.28
			c5.36-2.3,9.62-5.96,12.86-10.72c3.31-4.87,3.83-10.44,3.38-16.13c-0.56-6.99-2.63-13.59-5.51-19.94c-0.57-1.27-0.57-2.3,0.3-3.38
			c0.59-0.73,1.08-1.54,1.63-2.31c1.02-1.41,2.66-1.4,3.65,0.03c4.44,6.42,7.22,13.51,8.51,21.2
			C121.66,86.19,121.71,91.79,120.81,97.41z"/>
		<path class="st2" d="M116.67,85.93c-1.48,0-2.68,1.23-2.66,2.73c0.02,1.46,1.2,2.62,2.67,2.62c1.45,0,2.66-1.19,2.67-2.63
			C119.38,87.17,118.15,85.94,116.67,85.93z"/>
	</g>
</g>
</svg>
