<?xml version="1.0" encoding="utf-8"?>
<!-- Generator: Adobe Illustrator 26.1.0, SVG Export Plug-In . SVG Version: 6.00 Build 0)  -->
<svg version="1.1" id="Layer_1" xmlns="http://www.w3.org/2000/svg" xmlns:xlink="http://www.w3.org/1999/xlink" x="0px" y="0px"
	 viewBox="0 0 180 180" style="enable-background:new 0 0 180 180;" xml:space="preserve">
<style type="text/css">
	.st0{fill:url(#SVGID_1_);}
	.st1{fill:#606060;}
	.st2{fill:#FFFFFF;}
</style>
<g>
	<path class="st2" d="M90,18.18c-39.67,0-71.82,32.16-71.82,71.82c0,39.67,32.16,71.82,71.82,71.82c39.67,0,71.82-32.16,71.82-71.82
		C161.82,50.33,129.67,18.18,90,18.18z M90,142.25c-28.86,0-52.25-23.39-52.25-52.25S61.14,37.75,90,37.75S142.25,61.14,142.25,90
		S118.86,142.25,90,142.25z"/>
</g>
<g>
	<path class="st2" d="M89.99,45.27c24.7-0.01,44.76,20.04,44.75,44.75c-0.01,24.69-20.03,44.71-44.72,44.72
		c-24.7,0.01-44.76-20.04-44.75-44.75C45.28,65.3,65.29,45.28,89.99,45.27z M105.81,126.35c-3.23-8.01-6.43-15.94-9.63-23.88
		c-3.98,1.82-7.9,1.86-11.87,0.22c-2.95,8.09-5.87,16.11-8.82,24.2C85.7,130.67,95.74,130.5,105.81,126.35z M76.39,87.2
		c-8.65,0-17.25,0-25.9,0c-0.56,9.47,1.83,18.03,7.25,25.79c7.02-5,13.97-9.96,20.95-14.94C76.41,94.72,75.68,91.11,76.39,87.2z
		 M103.65,87.19c0.34,1.81,0.37,3.6,0.04,5.4c-0.33,1.79-1.02,3.45-2.01,5.03c7.14,4.74,14.24,9.45,21.39,14.19
		c4.86-7.52,6.98-15.68,6.44-24.62C120.86,87.19,112.28,87.19,103.65,87.19z M79.28,51.86c-8.62,2.53-15.56,7.32-21,14.42
		c7.13,4.88,14.2,9.71,21.29,14.56c2-2.22,4.43-3.67,7.34-4.38C84.36,68.25,81.83,60.09,79.28,51.86z M101.01,51.94
		c-2.53,8.15-5.03,16.22-7.54,24.28c0.03,0.02,0.06,0.04,0.09,0.05c4.68-4.18,9.35-8.36,14.03-12.54c0.04,0.02,0.07,0.04,0.11,0.06
		c-1.77,5.42-3.54,10.84-5.32,16.26c0.03,0.02,0.07,0.05,0.1,0.07c6.52-4.46,13.04-8.92,19.59-13.4
		C116.64,59.46,109.68,54.55,101.01,51.94z"/>
</g>
</svg>
