<?xml version="1.0" encoding="utf-8"?>
<!-- Generator: Adobe Illustrator 26.1.0, SVG Export Plug-In . SVG Version: 6.00 Build 0)  -->
<svg version="1.1" id="Layer_1" xmlns="http://www.w3.org/2000/svg" xmlns:xlink="http://www.w3.org/1999/xlink" x="0px" y="0px"
	 viewBox="0 0 180 180" style="enable-background:new 0 0 180 180;" xml:space="preserve">
<style type="text/css">
	.st0{fill:url(#SVGID_1_);}
	.st1{fill:#606060;}
	.st2{fill:#FFFFFF;}
</style>
<g>
	<g>
		<path class="st2" d="M90,18.18c-39.67,0-71.82,32.16-71.82,71.82c0,39.67,32.16,71.82,71.82,71.82
			c39.67,0,71.82-32.16,71.82-71.82C161.82,50.33,129.67,18.18,90,18.18z M90,142.25c-28.86,0-52.25-23.39-52.25-52.25
			S61.14,37.75,90,37.75S142.25,61.14,142.25,90S118.86,142.25,90,142.25z"/>
	</g>
	<g>
		<path class="st2" d="M90.05,83.28c-3.83,0.08-6.87,2.84-6.85,6.68c0.02,4.06,2.71,6.83,6.68,6.88c4.26,0.06,6.86-3.12,6.8-6.85
			C96.98,86.7,93.48,83.21,90.05,83.28z"/>
		<path class="st2" d="M90,45.66c-24.49,0-44.34,19.85-44.34,44.34c0,24.49,19.85,44.34,44.34,44.34
			c24.49,0,44.34-19.85,44.34-44.34C134.34,65.51,114.49,45.66,90,45.66z M67.61,104.99c-2.23,0.66-4.42-0.03-5.58-1.83
			c-0.47-0.73-0.84-1.54-1.2-2.34c-2.87-6.45-5.73-12.9-8.57-19.36c-0.77-1.74-0.68-3.45,0.53-4.95c1.17-1.45,2.81-1.83,4.59-1.58
			c1.68,0.24,2.65,1.44,3.31,2.84c1.25,2.63,2.41,5.31,3.6,7.97c1.79,4,3.58,7.99,5.33,12c0.41,0.94,0.63,1.96,0.94,2.94
			C70.36,102.73,69.2,104.52,67.61,104.99z M89.81,106.17C81,106.7,73.69,98.25,73.72,90.03c0.03-8.77,7.57-16.31,16.45-16.24
			c8.31,0.07,16.24,7.31,16.09,16.63C106.12,98.3,98.94,106.89,89.81,106.17z M123.55,105.13c-2.24,0.07-3.6-1.05-4.44-2.91
			c-1.46-3.24-2.9-6.5-4.34-9.75c-1.65-3.74-3.28-7.48-4.94-11.22c-1.04-2.35-0.2-4.8,2.06-5.91c2.35-1.15,5.05-0.38,6.13,1.92
			c1.94,4.12,3.76,8.29,5.64,12.44c1.2,2.66,2.43,5.3,3.61,7.97c0.51,1.16,1.17,2.33,0.87,3.68
			C127.69,103.47,126.13,105.41,123.55,105.13z"/>
	</g>
</g>
</svg>
