<?xml version="1.0" encoding="utf-8"?>
<!-- Generator: Adobe Illustrator 26.1.0, SVG Export Plug-In . SVG Version: 6.00 Build 0)  -->
<svg version="1.1" id="Layer_1" xmlns="http://www.w3.org/2000/svg" xmlns:xlink="http://www.w3.org/1999/xlink" x="0px" y="0px"
	 viewBox="0 0 180 180" style="enable-background:new 0 0 180 180;" xml:space="preserve">
<style type="text/css">
	.st0{fill:url(#SVGID_1_);}
	.st1{fill:#606060;}
	.st2{fill:#FFFFFF;}
</style>
<g>
	<g>
		<path class="st2" d="M90,18.18c-39.67,0-71.82,32.16-71.82,71.82c0,39.67,32.16,71.82,71.82,71.82
			c39.67,0,71.82-32.16,71.82-71.82C161.82,50.33,129.67,18.18,90,18.18z M90,142.25c-28.86,0-52.25-23.39-52.25-52.25
			S61.14,37.75,90,37.75S142.25,61.14,142.25,90S118.86,142.25,90,142.25z"/>
	</g>
	<g>
		<path class="st2" d="M90,45.66c-24.49,0-44.34,19.85-44.34,44.34c0,24.49,19.85,44.34,44.34,44.34
			c24.49,0,44.34-19.85,44.34-44.34C134.34,65.51,114.49,45.66,90,45.66z M75.14,93.48c-0.28,0.47-0.59,0.92-0.87,1.39
			c-0.47,0.79-0.93,1.58-1.38,2.38c-0.34,0.61-0.67,1.22-0.96,1.85c-0.49,1.08-0.99,2.17-1.41,3.28c-0.3,0.79-0.51,1.62-0.71,2.44
			c-0.37,1.47-0.52,2.97-0.51,4.49c0,0.39,0.01,0.79,0.01,1.18c0,0.53-0.19,0.74-0.72,0.74c-1.78,0.01-3.57,0.01-5.35,0.01
			c-0.61,0-1.22,0-1.83-0.01c-0.46,0-0.68-0.2-0.71-0.64c-0.1-2.04-0.04-4.07,0.36-6.08c0.29-1.46,0.97-2.74,1.87-3.91
			c0.4-0.52,0.86-1.01,1.29-1.51c0.05-0.06,0.11-0.12,0.19-0.22c-0.96-0.53-1.9-0.96-2.98-0.96c-0.81,0-1.57,0.21-2.14,0.82
			c-0.2,0.21-0.35,0.49-0.45,0.76c-0.15,0.45-0.26,0.57-0.73,0.57c-0.76,0.01-1.53,0.01-2.29,0.01c-0.44,0-0.67-0.24-0.67-0.65
			c0-2.08,0-4.15,0.01-6.23c0-0.46,0-0.93,0-1.39c0-0.38,0.2-0.59,0.59-0.59c0.84-0.01,1.68-0.01,2.52,0c0.4,0,0.59,0.17,0.64,0.57
			c0.01,0.1,0.02,0.2,0.02,0.32c0.13-0.03,0.24-0.06,0.35-0.09c1.22-0.4,2.47-0.67,3.76-0.75c1.05-0.07,2.05,0.17,3.06,0.41
			c0.93,0.23,1.87,0.47,2.82,0.63c0.8,0.13,1.62,0.07,2.41-0.12c0.31-0.08,0.62-0.24,0.89-0.42c0.65-0.42,0.74-0.44,1.39-0.02
			c0.42,0.27,0.83,0.56,1.27,0.8C75.25,92.73,75.36,93.11,75.14,93.48z M103.72,101.37c-1.03,4.16-1.46,8.41-1.43,12.7
			c0.01,1.11,0.03,2.22,0.04,3.33c0,1.5-0.55,2.1-2.02,2.1c-5.04,0.02-10.08,0.02-15.12,0.02c-1.72,0-3.45-0.01-5.17-0.03
			c-1.31-0.01-1.93-0.56-2-1.81c-0.29-5.77-0.12-11.51,1.03-17.2c0.83-4.13,2.75-7.75,5.3-11.05c1.14-1.48,2.44-2.85,3.66-4.27
			c0.15-0.18,0.31-0.35,0.54-0.61c-2.7-1.5-5.38-2.71-8.42-2.7c-2.28,0.01-4.43,0.59-6.05,2.33c-0.56,0.6-1,1.38-1.26,2.15
			c-0.44,1.28-0.72,1.61-2.07,1.63c-2.16,0.02-4.32,0.04-6.48,0.03c-1.23,0-1.89-0.68-1.89-1.85c0.01-5.87,0.01-11.74,0.02-17.61
			c0-1.31-0.01-2.62,0-3.93c0.01-1.09,0.58-1.66,1.66-1.67c2.38-0.02,4.76-0.01,7.14-0.01c1.13,0,1.67,0.49,1.81,1.62
			c0.03,0.27,0.04,0.55,0.07,0.9c0.37-0.1,0.68-0.16,0.99-0.26c3.46-1.13,6.98-1.89,10.62-2.13c2.97-0.19,5.8,0.47,8.65,1.17
			c2.64,0.65,5.29,1.34,7.97,1.78c2.26,0.37,4.59,0.21,6.83-0.34c0.89-0.22,1.75-0.68,2.52-1.18c1.84-1.2,2.09-1.24,3.92-0.05
			c1.19,0.77,2.35,1.59,3.6,2.26c0.94,0.51,1.26,1.57,0.62,2.63c-0.8,1.32-1.67,2.6-2.46,3.93c-1.32,2.23-2.64,4.46-3.9,6.72
			c-0.95,1.71-1.89,3.44-2.71,5.22c-1.4,3.06-2.79,6.14-3.99,9.28C104.89,96.71,104.3,99.05,103.72,101.37z M128.16,94.87
			c-0.47,0.79-0.93,1.58-1.38,2.38c-0.34,0.61-0.67,1.22-0.96,1.85c-0.49,1.08-0.99,2.17-1.41,3.28c-0.3,0.79-0.51,1.62-0.71,2.44
			c-0.37,1.47-0.52,2.97-0.51,4.49c0,0.39,0.01,0.79,0.01,1.18c0,0.53-0.19,0.74-0.72,0.74c-1.78,0.01-3.57,0.01-5.35,0.01
			c-0.61,0-1.22,0-1.83-0.01c-0.46,0-0.68-0.2-0.71-0.64c-0.1-2.04-0.04-4.07,0.36-6.08c0.29-1.46,0.97-2.74,1.87-3.91
			c0.4-0.52,0.86-1.01,1.29-1.51c0.05-0.06,0.11-0.12,0.19-0.22c-0.96-0.53-1.9-0.96-2.98-0.96c-0.81,0-1.57,0.21-2.14,0.82
			c-0.2,0.21-0.35,0.49-0.45,0.76c-0.15,0.45-0.26,0.57-0.73,0.57c-0.76,0.01-1.53,0.01-2.29,0.01c-0.44,0-0.67-0.24-0.67-0.65
			c0-2.08,0-4.15,0.01-6.23c0-0.46,0-0.93,0-1.39c0-0.38,0.2-0.59,0.59-0.59c0.84-0.01,1.68-0.01,2.52,0c0.4,0,0.59,0.17,0.64,0.57
			c0.01,0.1,0.02,0.2,0.02,0.32c0.13-0.03,0.24-0.06,0.35-0.09c1.22-0.4,2.47-0.67,3.76-0.75c1.05-0.07,2.05,0.17,3.06,0.41
			c0.93,0.23,1.87,0.47,2.82,0.63c0.8,0.13,1.62,0.07,2.41-0.12c0.31-0.08,0.62-0.24,0.89-0.42c0.65-0.42,0.74-0.44,1.39-0.02
			c0.42,0.27,0.83,0.56,1.27,0.8c0.33,0.18,0.45,0.55,0.22,0.93C128.75,93.95,128.44,94.4,128.16,94.87z"/>
	</g>
</g>
</svg>
