<?xml version="1.0" encoding="utf-8"?>
<!-- Generator: Adobe Illustrator 26.1.0, SVG Export Plug-In . SVG Version: 6.00 Build 0)  -->
<svg version="1.1" id="Layer_1" xmlns="http://www.w3.org/2000/svg" xmlns:xlink="http://www.w3.org/1999/xlink" x="0px" y="0px"
	 viewBox="0 0 180 180" style="enable-background:new 0 0 180 180;" xml:space="preserve">
<style type="text/css">
	.st0{fill:url(#SVGID_1_);}
	.st1{fill:#606060;}
	.st2{fill:#FFFFFF;}
</style>
<g>
	<path class="st2" d="M90,18.18c-39.67,0-71.82,32.16-71.82,71.82c0,39.67,32.16,71.82,71.82,71.82c39.67,0,71.82-32.16,71.82-71.82
		C161.82,50.33,129.67,18.18,90,18.18z M90,142.25c-28.86,0-52.25-23.39-52.25-52.25S61.14,37.75,90,37.75S142.25,61.14,142.25,90
		S118.86,142.25,90,142.25z"/>
</g>
<g>
	<g>
		<path class="st2" d="M90,45.66c-24.49,0-44.34,19.85-44.34,44.34S65.51,134.34,90,134.34c24.49,0,44.34-19.85,44.34-44.34
			S114.49,45.66,90,45.66z M119.22,98.7c-0.7,1.1-1.67,1.93-2.79,2.6c-3.35,1.99-6.39,4.37-9.12,7.15
			c-2.52,2.57-4.69,5.41-6.54,8.49c-1.36,2.26-3.25,3.86-5.91,4.29c-3.56,0.58-6.57-0.62-9.05-3.18c-1.58-1.63-2.4-3.61-2.39-5.9
			c0.01-1.45,0.43-2.8,1.11-4.07c0.07-0.14,0.15-0.27,0.29-0.53c-1.49,0.46-2.85,0.88-4.22,1.31c-1.28,0.41-2.53,0.92-3.83,1.23
			c-2.62,0.61-5-0.13-7.12-1.66c-2.58-1.87-3.91-4.41-3.77-7.63c0.09-2.08,0.88-3.94,2.09-5.6c1.74-2.39,3.76-4.54,5.87-6.6
			c0.12-0.12,0.26-0.22,0.39-0.33c-0.02-0.04-0.05-0.08-0.07-0.11c-0.48,0.15-0.97,0.29-1.45,0.46c-2.71,1.03-5.42,2.04-8.12,3.1
			c-2.59,1.02-5.23,1.46-7.9,0.49c-3.24-1.18-5.11-3.58-5.65-6.96c-0.41-2.57,0.03-5.01,1.52-7.2c0.73-1.07,1.71-1.86,2.9-2.38
			c5.83-2.51,11.79-4.64,17.9-6.34c5.34-1.49,10.75-2.63,16.23-3.44c6.98-1.02,14-1.47,21.06-1.26c4.16,0.12,8,3.43,8.63,7.54
			c0.53,3.47-0.43,6.52-3.16,8.87c-0.38,0.33-0.88,0.51-1.29,0.81c-0.87,0.63-1.73,1.28-2.58,1.93c-0.04,0.03-0.06,0.09-0.08,0.11
			c0.85,0.11,1.7,0.14,2.51,0.35c2.58,0.66,4.32,2.34,5.31,4.76C121.36,92.35,121.18,95.62,119.22,98.7z"/>
	</g>
</g>
</svg>
