<?xml version="1.0" encoding="utf-8"?>
<!-- Generator: Adobe Illustrator 26.1.0, SVG Export Plug-In . SVG Version: 6.00 Build 0)  -->
<svg version="1.1" id="Layer_1" xmlns="http://www.w3.org/2000/svg" xmlns:xlink="http://www.w3.org/1999/xlink" x="0px" y="0px"
	 viewBox="0 0 180 180" style="enable-background:new 0 0 180 180;" xml:space="preserve">
<style type="text/css">
	.st0{fill:url(#SVGID_1_);}
	.st1{fill:#606060;}
	.st2{fill:#FFFFFF;}
</style>
<g>
	<g>
		<g>
			<path class="st2" d="M90,18.18c-39.67,0-71.82,32.16-71.82,71.82c0,39.67,32.16,71.82,71.82,71.82
				c39.67,0,71.82-32.16,71.82-71.82C161.82,50.33,129.67,18.18,90,18.18z M90,142.25c-28.86,0-52.25-23.39-52.25-52.25
				S61.14,37.75,90,37.75S142.25,61.14,142.25,90S118.86,142.25,90,142.25z"/>
		</g>
		<g>
			<path class="st2" d="M62.41,71.79c1.6,0.89,3.17,1.82,4.76,2.72c0.21,0.12,0.44,0.19,0.73,0.32c0.2-0.18,0.44-0.34,0.6-0.55
				c1.65-2.19,3.54-4.13,5.78-5.73c0.55-0.4,0.57-0.8,0.24-1.34c-0.93-1.58-1.85-3.16-2.73-4.76c-0.33-0.6-0.62-0.72-1.22-0.3
				c-3.28,2.32-6.09,5.11-8.41,8.4C61.77,71.11,61.78,71.45,62.41,71.79z"/>
			<path class="st2" d="M56.86,87.99c0.98-0.02,1.96,0,2.93,0c0.94,0,1.87-0.01,2.81,0c0.57,0.01,0.88-0.15,0.95-0.81
				c0.27-2.74,0.98-5.36,2.1-7.87c0.26-0.57,0.26-0.93-0.37-1.27c-1.61-0.87-3.2-1.78-4.76-2.74c-0.73-0.45-1.03-0.24-1.35,0.47
				c-1.67,3.63-2.62,7.43-3,11.4C56.11,87.75,56.26,88,56.86,87.99z"/>
			<path class="st2" d="M65.68,100.78c-1.15-2.49-1.85-5.12-2.11-7.84c-0.07-0.78-0.41-0.94-1.09-0.92
				c-0.89,0.03-1.79,0.01-2.68,0.01c-0.98,0-1.95,0.01-2.93,0c-0.58-0.01-0.76,0.21-0.71,0.81c0.33,4.01,1.38,7.82,3.01,11.49
				c0.3,0.68,0.63,0.83,1.29,0.44c1.6-0.96,3.22-1.9,4.85-2.8C65.88,101.65,65.93,101.32,65.68,100.78z"/>
			<path class="st2" d="M78.04,65.31c0.3,0.53,0.59,0.65,1.16,0.4c2.54-1.13,5.2-1.89,7.98-2.15c0.65-0.06,0.82-0.37,0.81-0.95
				c-0.02-0.9-0.01-1.79,0-2.69c0-0.98-0.01-1.96,0.01-2.93c0.01-0.61-0.17-0.87-0.85-0.81c-4.01,0.36-7.84,1.38-11.5,3.06
				c-0.64,0.3-0.76,0.59-0.4,1.2C76.19,62.05,77.13,63.67,78.04,65.31z"/>
			<path class="st2" d="M114.34,79.29c1.15,2.5,1.84,5.13,2.12,7.86c0.06,0.63,0.32,0.85,0.92,0.84c0.94-0.02,1.87-0.01,2.81,0
				c0.98,0,1.95-0.01,2.93,0c0.56,0.01,0.79-0.18,0.73-0.8c-0.37-3.96-1.33-7.77-2.98-11.4c-0.37-0.81-0.72-0.9-1.46-0.45
				c-1.49,0.92-3.01,1.79-4.55,2.63C114.26,78.3,114.02,78.59,114.34,79.29z"/>
			<path class="st2" d="M92.72,63.51c2.82,0.32,5.51,1.07,8.1,2.2c0.49,0.21,0.81,0.19,1.09-0.32c0.93-1.67,1.89-3.33,2.87-4.97
				c0.39-0.65,0.13-0.91-0.46-1.19c-3.66-1.68-7.48-2.73-11.42-3.03c-0.67-0.15-0.9,0.11-0.9,0.69c0.01,1.95-0.02,3.91,0.04,5.86
				C92.06,63.02,92.46,63.48,92.72,63.51z"/>
			<path class="st2" d="M68.53,105.76c-0.41-0.57-0.8-0.57-1.34-0.25c-1.58,0.93-3.16,1.86-4.76,2.74
				c-0.64,0.35-0.65,0.72-0.27,1.26c2.34,3.28,5.15,6.08,8.44,8.4c0.54,0.38,0.84,0.27,1.14-0.28c0.91-1.63,1.86-3.25,2.79-4.87
				c0.1-0.17,0.16-0.37,0.27-0.63c-0.17-0.2-0.31-0.45-0.53-0.61C72.08,109.9,70.14,107.99,68.53,105.76z"/>
			<path class="st2" d="M105.91,68.71c1.86,1.75,3.67,3.55,5.42,5.41c0.54,0.57,0.91,0.79,1.62,0.36c1.49-0.91,3-1.79,4.54-2.62
				c0.74-0.4,0.76-0.75,0.3-1.4c-2.26-3.18-4.99-5.88-8.15-8.15c-0.23-0.17-0.48-0.31-0.81-0.52c-0.18,0.19-0.39,0.35-0.52,0.57
				c-0.93,1.57-1.81,3.18-2.77,4.73C105.09,67.82,105.35,68.18,105.91,68.71z"/>
			<path class="st2" d="M90,45.66c-24.49,0-44.34,19.85-44.34,44.34S65.51,134.34,90,134.34s44.34-19.85,44.34-44.34
				S114.49,45.66,90,45.66z M89.96,127.99c-20.89,0.17-38.07-17.23-37.98-38.15c0.09-20.58,17.09-37.95,38.23-37.82
				c20.99,0.12,38.05,17.53,37.8,38.51C127.76,111.05,110.78,128.19,89.96,127.99z"/>
			<path class="st2" d="M112.75,105.46c-0.71-0.42-0.98,0.05-1.39,0.47c-1.79,1.83-3.55,3.68-5.44,5.39c-0.67,0.61-0.75,1-0.31,1.72
				c0.91,1.49,1.79,3.01,2.62,4.55c0.39,0.72,0.74,0.65,1.32,0.23c3.24-2.32,6.02-5.09,8.31-8.35c0.14-0.2,0.25-0.41,0.42-0.67
				c-0.2-0.17-0.36-0.35-0.56-0.46C116.05,107.38,114.39,106.45,112.75,105.46z"/>
			<path class="st2" d="M123.05,92.02c-0.93,0.02-1.87,0-2.8,0.01c-0.98,0-1.95,0.01-2.93,0c-0.53-0.01-0.81,0.16-0.86,0.75
				c-0.26,2.81-0.98,5.51-2.17,8.08c-0.28,0.6-0.05,0.86,0.45,1.14c1.56,0.87,3.13,1.73,4.64,2.69c0.85,0.54,1.18,0.24,1.53-0.54
				c1.6-3.59,2.58-7.34,2.93-11.26C123.9,92.19,123.66,92.01,123.05,92.02z"/>
			<path class="st2" d="M102,114.8c-0.37-0.68-0.74-0.62-1.37-0.39c-1.76,0.63-3.54,1.18-5.34,1.69c-1.04,0.3-2.57,0.12-3.05,0.77
				c-0.56,0.75-0.22,2.18-0.27,3.31c0.02,0,0.04,0,0.05,0c0,0.98,0.01,1.95,0,2.93c-0.01,0.56,0.19,0.83,0.79,0.77
				c4.04-0.39,7.92-1.39,11.62-3.1c0.68-0.31,0.66-0.66,0.32-1.23C103.8,117.99,102.87,116.41,102,114.8z"/>
			<path class="st2" d="M87.16,116.47c-2.78-0.26-5.44-0.99-7.98-2.15c-0.5-0.23-0.79-0.19-1.08,0.32
				c-0.93,1.67-1.89,3.33-2.87,4.97c-0.38,0.63-0.18,0.91,0.43,1.19c3.66,1.69,7.51,2.66,11.51,3.06c0.58,0.06,0.84-0.14,0.83-0.73
				c-0.02-0.98,0-1.96,0-2.93c0-0.94-0.02-1.87,0.01-2.81C88.01,116.8,87.78,116.53,87.16,116.47z"/>
		</g>
	</g>
	<g>
		<path class="st2" d="M90.06,67.4c-13.14-0.01-22.72,10.37-22.68,22.69c0.04,12.49,9.86,22.49,22.56,22.55
			c12.69,0.06,22.55-10.11,22.72-22.56C112.53,77.66,102.93,67.41,90.06,67.4z M83.79,100.09V79.95l16.22,10.07L83.79,100.09z"/>
	</g>
</g>
</svg>
